<svg xmlns="http://www.w3.org/2000/svg" xmlns:xlink="http://www.w3.org/1999/xlink" aria-hidden="true" role="img" class="iconify iconify--logos" width="31.88" height="32" preserveAspectRatio="xMidYMid meet" viewBox="0 0 256 257"><defs><linearGradient id="IconifyId1813088fe1fbc01" x1="-.828%" x2="57.636%" y1="7.652%" y2="78.411%"><stop offset="0%" stop-color="#41D1FF"></stop><stop offset="100%" stop-color="#BD34FE"></stop></linearGradient><linearGradient id="IconifyId1813088fe1fbc02" x1="43.376%" x2="50.325%" y1="2.242%" y2="89.03%"><stop offset="0%" stop-color="#FFEA83"></stop><stop offset="8.333%" stop-color="#FFDD35"></stop><stop offset="100%" stop-color="#FFA800"></stop></linearGradient></defs><path fill="url(#IconifyId1813088fe1fbc01)" d="M255.805 110.885c.422 17.565-5.913 34.613-17.765 47.962L135.247 254.896a16.516 16.516 0 0 1-23.235 0L10.235 152.921A80.527 80.527 0 0 1 25.542 22.464A80.53 80.53 0 0 1 138.805 18.067l44.622 44.622a14.28 14.28 0 0 0 20.218 0l16.216-16.216a14.28 14.28 0 0 0 0-20.218l-5.324-5.324a14.248 14.248 0 0 0-20.158 0L148.805 60.18c-1.258 1.258-2.516 2.516-3.774 3.774l-44.622-44.622A80.527 80.527 0 0 0 4.235 77.848a80.532 80.532 0 0 0 10.307 72.884l101.777 101.975a16.516 16.516 0 0 0 23.235 0l101.777-101.975a80.53 80.53 0 0 0 14.474-40.347Z"></path><path fill="url(#IconifyId1813088fe1fbc02)" d="M238.038 158.847L138.805 254.896a16.516 16.516 0 0 1-23.235 0L13.793 158.847a80.532 80.532 0 0 1 0-113.818a80.53 80.53 0 0 1 113.818 0l46.155 46.155a15.753 15.753 0 0 0 22.28 0l41.992-41.992a80.53 80.53 0 0 1 0 113.818Z"></path></svg>
